# xmcd
#
# Track frame offsets:
#	150
#	16011
#	30424
#	47804
#	64662
#	82017
#	101437
#	114206
#	129892
#	140340
#	155416
#	170460
#	180351
#	192368
#	204628
#	215311
#	226912
#
# Disc length: 3174 seconds
#
# Revision: 1
# Processed by: cddbd v1.5.2PL0 Copyright (c) Steve Scherf et al.
# Submitted via: EZCDAudioConverter 7.0.6.1
#
DISCID=d10c6411
DTITLE=The Fuzztones - Braindrops
DYEAR=1991
DGENRE=
TTITLE0=Third Time's The Charm
TTITLE1=Skeleton Farm
TTITLE2=Romilar D
TTITLE3=Fear
TTITLE4=Rise
TTITLE5=Ghost Clinic
TTITLE6=7 And 7 Is
TTITLE7=Look For The Question Mark
TTITLE8=I Looked At You
TTITLE9=The People In Me
TTITLE10=All The King's Horses
TTITLE11=Blackout
TTITLE12=Try It [Live]
TTITLE13=My Little Red Book [Live]
TTITLE14=Be A Caveman [Live]
TTITLE15=Rari [Live]
TTITLE16=Shape Of Things To Come [Live]
EXTD=
EXTT0=
EXTT1=
EXTT2=
EXTT3=
EXTT4=
EXTT5=
EXTT6=
EXTT7=
EXTT8=
EXTT9=
EXTT10=
EXTT11=
EXTT12=
EXTT13=
EXTT14=
EXTT15=
EXTT16=
PLAYORDER=
